<svg width="417" height="417" fill="none" xmlns="http://www.w3.org/2000/svg"><path d="M82.53 135.332c12.544-37.851 38.45-71.512 75.659-93.102 16.127-9.331 33.167-15.715 50.439-19.31 65.457-13.535 134.777 12.893 173.809 70.299.553.81 1.041 1.586 1.561 2.396a232.675 232.675 0 015.266 8.549 132.34 132.34 0 013.089 5.57c15.676 29.147 24.584 62.488 24.646 97.919.194 111.577-87.43 202.755-197.701 208.134 70.304-4.207 128.992-51.378 150.145-115.632 5.579-16.736 8.53-34.635 8.498-53.242-.076-43.082-16.255-82.31-42.791-112.086-29.427-32.981-71.605-54.335-118.742-56.295-1.07-.063-2.172-.093-3.242-.124a.448.448 0 00-.292 0c-1.362-.062-2.723-.06-4.085-.057-1.361.002-2.723.005-4.084.072a.447.447 0 00-.292 0c-1.069.035-2.171.07-3.241.136-68.1 4.106-121.974 60.572-121.854 129.651.037 21.265 5.194 41.322 14.302 59.005-22.28-42.07-24.988-89.62-11.058-131.883h-.032z" fill="url(#paint0_linear_1124_1365)"/><path d="M23.137 114.462c.29-.519.55-1.038.84-1.557 2.875-5.678 6.075-11.195 9.469-16.55.388-.648.84-1.297 1.293-1.946C71.79 37.648 135.78.127 208.618 0c72.58-.126 136.537 36.911 173.817 93.218-39.032-57.374-108.352-83.834-173.809-70.3-17.304 3.564-34.312 9.948-50.439 19.312-37.241 21.59-63.116 55.25-75.66 93.102-13.93 42.263-11.22 89.813 11.058 131.883.195.421.39.842.65 1.231.748 1.457 1.561 2.882 2.342 4.307.065.097.097.194.195.291a92.479 92.479 0 002.113 3.53c22.95 36.752 63.805 61.188 110.355 61.107 46.517-.082 87.254-24.659 110.108-61.492-25.277 41.537-65.751 68.416-110.113 77.603-39.047 8.107-81.101 2.54-118.385-18.919a167.653 167.653 0 01-41.941-34.094C4.314 250.709-7.387 177.111 23.202 114.494l-.065-.032z" fill="url(#paint1_linear_1124_1365)"/><path d="M23.14 114.463C-7.45 177.08 4.251 250.678 48.846 300.748c11.725 13.205 25.782 24.786 41.941 34.094 37.316 21.459 79.338 27.058 118.385 18.919 44.362-9.187 84.836-36.066 110.113-77.603.679-1.168 1.39-2.336 2.101-3.537.064-.097.097-.195.194-.292a90.522 90.522 0 002.326-4.316c.259-.389.453-.811.647-1.232 9.045-17.716 14.132-37.79 14.095-59.055-.121-69.079-54.192-125.39-122.273-129.226 47.169 1.96 89.347 23.314 118.742 56.295 26.568 29.777 42.715 69.005 42.79 112.086.033 18.607-2.918 36.506-8.497 53.243-21.153 64.221-79.874 111.424-150.145 115.631-3.274.136-6.613.239-9.919.245-3.307.005-6.646-.054-9.92-.21C89.137 410.796 1.196 319.924 1.001 208.347c-.06-33.745 7.924-65.657 22.138-93.884z" fill="url(#paint2_linear_1124_1365)"/><defs><linearGradient id="paint0_linear_1124_1365" x1="383.925" y1="361.489" x2="84.717" y2="-14.174" gradientUnits="userSpaceOnUse"><stop stop-color="#C0DED4"/><stop offset=".6" stop-color="#49A3BB"/><stop offset=".99" stop-color="#13455A"/></linearGradient><linearGradient id="paint1_linear_1124_1365" x1="148.87" y1="50.3" x2="244.531" y2="273.92" gradientUnits="userSpaceOnUse"><stop stop-color="#C0DED4"/><stop offset=".6" stop-color="#49A3BB"/><stop offset=".99" stop-color="#13455A"/></linearGradient><linearGradient id="paint2_linear_1124_1365" x1="377.941" y1="246.978" x2="1.069" y2="247.636" gradientUnits="userSpaceOnUse"><stop stop-color="#C0DED4"/><stop offset=".6" stop-color="#49A3BB"/><stop offset=".99" stop-color="#13455A"/></linearGradient></defs></svg>