<svg width="52" height="16" fill="none" xmlns="http://www.w3.org/2000/svg"><path d="M.99 0h7.096a8.14 8.14 0 015.711 2.349c1.46 1.455 2.375 3.45 2.375 5.651 0 2.202-.916 4.196-2.375 5.651A8.14 8.14 0 018.086 16H.989C.371 16 0 15.633 0 15.021V.98C0 .367.371 0 .99 0zm35.655 16c-.62 0-.99-.367-.99-.979V.98c0-.612.37-.979.99-.979h9.234c2.51 0 4.55 2.018 4.55 4.501 0 .82-.222 1.603-.618 2.263A5.052 5.052 0 0152 10.924c0 2.8-2.3 5.076-5.132 5.076H36.645zm-3.709-1.235L25.542.392c-.272-.514-1.113-.514-1.385.012l-7.418 14.41c-.247.489.087 1.174.693 1.174L32.28 16c.642 0 .939-.697.655-1.235z" fill="#fff"/></svg>