<svg width="80" height="80" fill="none" xmlns="http://www.w3.org/2000/svg"><path d="M64.297 54.017a32.434 32.434 0 01-14.581 17.879 32.633 32.633 0 01-9.707 3.697c-12.592 2.58-25.914-2.525-33.401-13.578-.106-.156-.2-.305-.3-.461a48.04 48.04 0 01-1.01-1.646c-.205-.355-.404-.71-.591-1.072A39.785 39.785 0 010 39.996C0 18.54 16.881 1.036 38.09.038 24.567.823 13.265 9.874 9.175 22.224A32.135 32.135 0 007.524 32.46a32.367 32.367 0 008.192 21.57c5.648 6.352 13.752 10.472 22.816 10.865.206.013.418.019.623.025a.086.086 0 00.056 0c.262.013.524.013.786.013s.524 0 .785-.013a.086.086 0 00.057 0c.205-.006.417-.012.623-.025 13.097-.767 23.477-11.607 23.477-24.892 0-4.09-.985-7.948-2.73-11.352 4.27 8.098 4.775 17.243 2.081 25.366h.007z" fill="url(#paint0_linear_1124_3937)"/><path d="M75.711 58.05c-.056.1-.106.2-.162.3a38.15 38.15 0 01-1.827 3.179 6.48 6.48 0 01-.249.374C66.329 72.806 54.011 80 40.003 80c-13.958 0-26.245-7.144-33.395-17.985 7.487 11.046 20.809 16.158 33.401 13.578a32.236 32.236 0 009.706-3.697c7.17-4.14 12.157-10.604 14.582-17.88 2.693-8.122 2.188-17.267-2.082-25.365-.038-.081-.075-.162-.125-.237-.144-.28-.3-.555-.449-.829-.012-.019-.019-.037-.037-.056a17.95 17.95 0 00-.406-.68c-4.4-7.075-12.25-11.788-21.201-11.788-8.946 0-16.788 4.713-21.195 11.788 4.874-7.979 12.667-13.135 21.201-14.886 7.512-1.546 15.597-.461 22.76 3.678a32.236 32.236 0 018.054 6.57c8.56 9.644 10.785 23.802 4.882 35.833l.012.006z" fill="url(#paint1_linear_1124_3937)"/><path d="M75.711 58.05c5.904-12.031 3.678-26.188-4.881-35.832a32.371 32.371 0 00-8.054-6.57 32.284 32.284 0 00-22.76-3.679c-8.534 1.752-16.327 6.907-21.202 14.887-.13.224-.268.449-.405.68-.012.018-.019.037-.037.055-.156.268-.306.549-.45.83a1.71 1.71 0 00-.124.236 24.805 24.805 0 00-2.73 11.352c0 13.285 10.38 24.132 23.47 24.892-9.07-.392-17.174-4.513-22.816-10.865a32.336 32.336 0 01-8.191-21.57c0-3.578.573-7.02 1.652-10.236C13.273 9.887 24.58.83 38.096.044 38.726.019 39.367 0 40.003 0c.636 0 1.278.012 1.908.044C63.119 1.04 80 18.546 80 40.004a39.878 39.878 0 01-4.29 18.046z" fill="url(#paint2_linear_1124_3937)"/><defs><linearGradient id="paint0_linear_1124_3937" x1="6.412" y1="10.424" x2="63.826" y2="82.767" gradientUnits="userSpaceOnUse"><stop stop-color="#C0DED4"/><stop offset=".6" stop-color="#49A3BB"/><stop offset=".99" stop-color="#13455A"/></linearGradient><linearGradient id="paint1_linear_1124_3937" x1="51.51" y1="70.347" x2="33.189" y2="27.311" gradientUnits="userSpaceOnUse"><stop stop-color="#C0DED4"/><stop offset=".6" stop-color="#49A3BB"/><stop offset=".99" stop-color="#13455A"/></linearGradient><linearGradient id="paint2_linear_1124_3937" x1="7.525" y1="32.448" x2="80" y2="32.448" gradientUnits="userSpaceOnUse"><stop stop-color="#C0DED4"/><stop offset=".6" stop-color="#49A3BB"/><stop offset=".99" stop-color="#13455A"/></linearGradient></defs></svg>