<svg width="260" height="48" fill="none" xmlns="http://www.w3.org/2000/svg"><g clip-path="url(#clip0_1102_24886)"><path d="M250.644 32.242a19.352 19.352 0 01-8.688 10.672 19.41 19.41 0 01-5.783 2.206c-7.503 1.54-15.44-1.507-19.901-8.104a26.566 26.566 0 01-.78-1.258 23.783 23.783 0 01-3.157-11.885c0-12.807 10.058-23.255 22.694-23.85-8.056.468-14.79 5.871-17.227 13.242a19.228 19.228 0 00-.984 6.11c0 4.945 1.846 9.451 4.881 12.874 3.365 3.792 8.193 6.252 13.594 6.486.123.007.249.011.371.015a.053.053 0 00.034 0c.156.007.312.007.468.007.156 0 .312 0 .468-.007.007.004.022.004.033 0 .123-.004.249-.008.372-.015 7.803-.458 13.988-6.928 13.988-14.858 0-2.44-.587-4.744-1.627-6.776a19.368 19.368 0 011.24 15.14h.004z" fill="url(#paint0_linear_1102_24886)"/><path d="M257.445 34.65c-.033.059-.063.118-.096.178a22.91 22.91 0 01-1.089 1.898 3.588 3.588 0 01-.148.223c-4.257 6.508-11.596 10.802-19.942 10.802-8.316 0-15.637-4.264-19.898-10.735 4.461 6.593 12.399 9.645 19.902 8.104a19.19 19.19 0 005.783-2.206 19.333 19.333 0 008.687-10.672 19.368 19.368 0 00-1.24-15.14 1.073 1.073 0 00-.074-.142c-.086-.167-.179-.331-.268-.495-.007-.011-.011-.022-.022-.033a9.888 9.888 0 00-.242-.406c-2.622-4.223-7.298-7.036-12.632-7.036-5.33 0-10.002 2.813-12.628 7.036a19.311 19.311 0 0112.632-8.885 19.223 19.223 0 0113.561 2.195 19.231 19.231 0 014.799 3.922c5.099 5.756 6.425 14.206 2.908 21.388l.007.003z" fill="url(#paint1_linear_1102_24886)"/><path d="M257.445 34.65c3.518-7.182 2.192-15.632-2.908-21.389a19.296 19.296 0 00-4.799-3.921 19.206 19.206 0 00-13.561-2.196 19.316 19.316 0 00-12.632 8.886c-.078.134-.16.268-.241.405-.008.012-.011.023-.023.034-.092.16-.182.327-.267.495a.966.966 0 00-.074.141 14.828 14.828 0 00-1.627 6.776c0 7.93 6.184 14.404 13.984 14.858a19.25 19.25 0 01-13.594-6.486 19.322 19.322 0 01-4.881-12.874c0-2.136.342-4.19.985-6.11C220.243 5.9 226.981.495 235.033.026c.376-.015.758-.026 1.137-.026s.761.007 1.137.026c12.636.595 22.694 11.044 22.694 23.851 0 3.874-.921 7.535-2.556 10.772z" fill="url(#paint2_linear_1102_24886)"/><path d="M69.29 45.56a4.749 4.749 0 01-4.743-4.753V7.073a4.749 4.749 0 014.743-4.751 4.749 4.749 0 014.743 4.751v33.734a4.749 4.749 0 01-4.743 4.752zm69.193-5.768a26.264 26.264 0 00-10.611-15.893c5.263-3.687 9.133-9.257 10.597-15.78a4.753 4.753 0 00-3.588-5.678 4.746 4.746 0 00-5.668 3.594c-1.705 7.595-8.592 13.11-16.377 13.11h-12.443V7.072a4.748 4.748 0 00-4.743-4.751 4.749 4.749 0 00-4.743 4.751v33.734a4.749 4.749 0 004.743 4.752 4.748 4.748 0 004.743-4.752V28.64h12.428c7.875 0 14.713 5.503 16.395 13.187a4.743 4.743 0 005.65 3.62 4.75 4.75 0 003.614-5.66l.003.005zm61.966-.019a26.261 26.261 0 00-10.612-15.892c5.263-3.688 9.134-9.258 10.597-15.78a4.752 4.752 0 00-3.588-5.679 4.747 4.747 0 00-5.668 3.595c-1.705 7.594-8.591 13.109-16.376 13.109h-12.443V7.059a4.749 4.749 0 00-4.743-4.752 4.748 4.748 0 00-4.743 4.752v33.734a4.748 4.748 0 004.743 4.751 4.749 4.749 0 004.743-4.751V28.625h12.428c7.874 0 14.712 5.503 16.395 13.187a4.742 4.742 0 109.263-2.039h.004zM42.919 2.255a4.749 4.749 0 00-4.744 4.752v23.21L7.95 3.51a4.72 4.72 0 00-3.206-1.254A4.749 4.749 0 000 7.007V40.74a4.749 4.749 0 004.743 4.752 4.749 4.749 0 004.743-4.752V17.53l30.246 26.723a4.699 4.699 0 003.187 1.235 4.751 4.751 0 004.743-4.751V7.007a4.751 4.751 0 00-4.743-4.752z" fill="url(#paint3_linear_1102_24886)"/></g><defs><linearGradient id="paint0_linear_1102_24886" x1="216.155" y1="6.222" x2="250.439" y2="49.343" gradientUnits="userSpaceOnUse"><stop stop-color="#C0DED4"/><stop offset=".6" stop-color="#49A3BB"/><stop offset=".99" stop-color="#13455A"/></linearGradient><linearGradient id="paint1_linear_1102_24886" x1="243.026" y1="41.989" x2="232.077" y2="16.316" gradientUnits="userSpaceOnUse"><stop stop-color="#C0DED4"/><stop offset=".6" stop-color="#49A3BB"/><stop offset=".99" stop-color="#13455A"/></linearGradient><linearGradient id="paint2_linear_1102_24886" x1="216.819" y1="19.367" x2="260.001" y2="19.367" gradientUnits="userSpaceOnUse"><stop stop-color="#C0DED4"/><stop offset=".6" stop-color="#49A3BB"/><stop offset=".99" stop-color="#13455A"/></linearGradient><linearGradient id="paint3_linear_1102_24886" x1="-.617" y1="11.929" x2="302.774" y2="47.791" gradientUnits="userSpaceOnUse"><stop offset=".05" stop-color="#13455A"/><stop offset=".18" stop-color="#1D566C"/><stop offset=".43" stop-color="#37849B"/><stop offset=".58" stop-color="#49A3BB"/><stop offset=".93" stop-color="#C0DED4"/></linearGradient><clipPath id="clip0_1102_24886"><path fill="#fff" d="M0 0h260v48H0z"/></clipPath></defs></svg>