<?xml version="1.0" encoding="utf-8"?><svg xmlns="http://www.w3.org/2000/svg" xmlns:xlink="http://www.w3.org/1999/xlink"><symbol viewBox="0 0 32 32" id="android" xmlns="http://www.w3.org/2000/svg"><path d="M7.6 12.781v7.238c0 .962-.756 1.731-1.719 1.731-.956 0-1.881-.775-1.881-1.731v-7.238c0-.944.925-1.719 1.881-1.719.944 0 1.719.775 1.719 1.719zm.675 9.813c0 1.025.825 1.85 1.85 1.85h1.244l.019 3.819c0 2.306 3.45 2.288 3.45 0v-3.819h2.325v3.819c0 2.294 3.469 2.3 3.469 0v-3.819h1.262a1.844 1.844 0 001.837-1.85V11.382H8.275v11.212zm15.5-11.819H8.206c0-2.675 1.6-5 3.975-6.212l-1.194-2.206c-.175-.306.269-.5.419-.238l1.212 2.225c2.181-.969 4.688-.919 6.769 0l1.206-2.219c.156-.269.594-.069.419.238l-1.194 2.2c2.356 1.212 3.956 3.538 3.956 6.212h.001zM13.106 7.306a.656.656 0 00-.656-.656c-.356 0-.637.3-.637.656 0 .356.288.656.637.656.369 0 .656-.3.656-.656zm7.088 0a.653.653 0 00-.638-.656.656.656 0 000 1.312c.35 0 .638-.3.638-.656zm5.925 3.757c-.944 0-1.719.756-1.719 1.719v7.238c0 .962.775 1.731 1.719 1.731.963 0 1.881-.775 1.881-1.731v-7.238c0-.962-.925-1.719-1.881-1.719z"/></symbol><symbol viewBox="0 0 32 32" id="apple" xmlns="http://www.w3.org/2000/svg"><path d="M24.947 26.001c-1.107 1.654-2.28 3.267-4.067 3.294-1.787.04-2.36-1.054-4.387-1.054-2.04 0-2.666 1.027-4.36 1.094-1.746.066-3.067-1.76-4.187-3.374-2.28-3.293-4.026-9.36-1.68-13.44 1.16-2.026 3.24-3.306 5.494-3.346 1.707-.027 3.333 1.16 4.386 1.16 1.04 0 3.014-1.427 5.08-1.214.867.04 3.294.347 4.854 2.64-.12.08-2.893 1.707-2.867 5.08.04 4.027 3.534 5.374 3.573 5.387-.04.093-.56 1.92-1.84 3.773zM17.332 4.668c.974-1.107 2.587-1.947 3.92-2 .174 1.56-.453 3.133-1.387 4.253-.92 1.134-2.44 2.014-3.933 1.894-.2-1.534.547-3.134 1.4-4.147z"/></symbol><symbol viewBox="0 0 24 24" id="login" xmlns="http://www.w3.org/2000/svg"><path fill-rule="evenodd" clip-rule="evenodd" d="M8.283 7.532a.75.75 0 011.06 0l3.937 3.938a.75.75 0 010 1.06l-3.936 3.938a.75.75 0 11-1.06-1.06L11.688 12 8.283 8.593a.75.75 0 010-1.06z"/><path fill-rule="evenodd" clip-rule="evenodd" d="M1.5 12a.75.75 0 01.75-.75h10.497a.75.75 0 110 1.5H2.25A.75.75 0 011.5 12z"/><path fill-rule="evenodd" clip-rule="evenodd" d="M12 3.75a.75.75 0 01.75-.75H18a1.5 1.5 0 011.5 1.5v15A1.5 1.5 0 0118 21h-5.25a.75.75 0 010-1.5H18v-15h-5.25a.75.75 0 01-.75-.75z"/></symbol><symbol viewBox="0 0 24 24" id="logout" xmlns="http://www.w3.org/2000/svg"><path fill-rule="evenodd" clip-rule="evenodd" d="M15.783 7.532a.75.75 0 011.06 0l3.937 3.938a.75.75 0 010 1.06l-3.936 3.938a.75.75 0 01-1.06-1.06L19.188 12l-3.406-3.407a.75.75 0 010-1.06z"/><path fill-rule="evenodd" clip-rule="evenodd" d="M9 12a.75.75 0 01.75-.75h10.497a.75.75 0 110 1.5H9.75A.75.75 0 019 12z"/><path fill-rule="evenodd" clip-rule="evenodd" d="M3.44 3.44A1.5 1.5 0 014.5 3h5.25a.75.75 0 010 1.5H4.5v15h5.25a.75.75 0 010 1.5H4.5A1.5 1.5 0 013 19.5v-15c0-.398.158-.78.44-1.06z"/></symbol><symbol viewBox="0 0 24 24" id="phone" xmlns="http://www.w3.org/2000/svg"><path d="M21.53 16.694a2.106 2.106 0 00-.748-.887l-2.992-2.124a4.223 4.223 0 00-.767-.425c-.652-.266-1.32-.206-1.82.102-.447.206-1.026.836-1.412 1.213-1.42-.892-3.417-2.887-4.378-4.38.355-.378.974-.96 1.189-1.377.198-.325.298-.671.298-1.029 0-.271-.062-.556-.182-.835a3.798 3.798 0 00-.441-.778L8.194 3.238a2.199 2.199 0 00-.897-.753 2.457 2.457 0 00-1.052-.235c-2.34.026-4.05 2.614-3.982 4.836.006 2.297 1.15 4.47 2.556 6.453a25.742 25.742 0 005.628 5.628c2.48 1.758 5.591 3.346 8.51 2.185 1.404-.58 2.769-2.038 2.779-3.655 0-.328-.064-.649-.207-1.003zm-1.447 1.664c-.333.717-1.008 1.328-1.698 1.608-2.197.929-5.075-.576-7.054-2.01a24.18 24.18 0 01-5.296-5.296c-1.217-1.729-2.256-3.594-2.272-5.574C3.77 6.03 4.11 5.12 4.9 4.381c.43-.425.87-.631 1.346-.631.143 0 .284.03.414.093a.73.73 0 01.306.257c.215.336 2.283 3.129 2.37 3.435.06.138.065.223.065.254a.518.518 0 01-.092.269c-.156.299-.793.89-1.041 1.167-.428.392-.51 1.034-.197 1.658.19.348.5.779.928 1.284a25.927 25.927 0 002.818 2.828c.488.412.923.72 1.267.902.501.294 1.245.32 1.661-.158.263-.247.915-.959 1.196-1.073.268-.162.337-.09.514-.018.278.063 3.16 2.194 3.466 2.389.155.107.208.2.226.239a1.1 1.1 0 01.09.422c0 .223-.05.444-.152.66z"/></symbol><symbol viewBox="0 0 24 24" id="user-circle" xmlns="http://www.w3.org/2000/svg"><path fill-rule="evenodd" clip-rule="evenodd" d="M12 3.75a8.25 8.25 0 100 16.5 8.25 8.25 0 000-16.5zM2.25 12c0-5.385 4.365-9.75 9.75-9.75s9.75 4.365 9.75 9.75-4.365 9.75-9.75 9.75S2.25 17.385 2.25 12z"/><path fill-rule="evenodd" clip-rule="evenodd" d="M12 8.25a3 3 0 100 6 3 3 0 000-6zm-4.5 3a4.5 4.5 0 119 0 4.5 4.5 0 01-9 0z"/><path fill-rule="evenodd" clip-rule="evenodd" d="M12 15.75a6.002 6.002 0 00-5.35 3.281.75.75 0 11-1.337-.68 7.503 7.503 0 0113.374 0 .75.75 0 11-1.337.68A6.002 6.002 0 0012 15.75z"/></symbol></svg>