<svg width="32" height="32" fill="none" xmlns="http://www.w3.org/2000/svg"><path d="M24.947 26.001c-1.107 1.654-2.28 3.267-4.067 3.294-1.787.04-2.36-1.054-4.387-1.054-2.04 0-2.666 1.027-4.36 1.094-1.746.066-3.067-1.76-4.187-3.374-2.28-3.293-4.026-9.36-1.68-13.44 1.16-2.026 3.24-3.306 5.494-3.346 1.707-.027 3.333 1.16 4.386 1.16 1.04 0 3.014-1.427 5.08-1.214.867.04 3.294.347 4.854 2.64-.12.08-2.893 1.707-2.867 5.08.04 4.027 3.534 5.374 3.573 5.387-.04.093-.56 1.92-1.84 3.773zM17.332 4.668c.974-1.107 2.587-1.947 3.92-2 .174 1.56-.453 3.133-1.387 4.253-.92 1.134-2.44 2.014-3.933 1.894-.2-1.534.547-3.134 1.4-4.147z" fill="#fff"/></svg>