<svg width="24" height="24" fill="none" xmlns="http://www.w3.org/2000/svg"><path fill-rule="evenodd" clip-rule="evenodd" d="M8.283 7.532a.75.75 0 011.06 0l3.937 3.938a.75.75 0 010 1.06l-3.936 3.938a.75.75 0 11-1.06-1.06L11.688 12 8.283 8.593a.75.75 0 010-1.06z" fill="#081D26"/><path fill-rule="evenodd" clip-rule="evenodd" d="M1.5 12a.75.75 0 01.75-.75h10.497a.75.75 0 110 1.5H2.25A.75.75 0 011.5 12z" fill="#081D26"/><path fill-rule="evenodd" clip-rule="evenodd" d="M12 3.75a.75.75 0 01.75-.75H18a1.5 1.5 0 011.5 1.5v15A1.5 1.5 0 0118 21h-5.25a.75.75 0 010-1.5H18v-15h-5.25a.75.75 0 01-.75-.75z" fill="#081D26"/></svg>