<svg width="24" height="24" fill="none" xmlns="http://www.w3.org/2000/svg"><path fill-rule="evenodd" clip-rule="evenodd" d="M15.783 7.532a.75.75 0 011.06 0l3.937 3.938a.75.75 0 010 1.06l-3.936 3.938a.75.75 0 01-1.06-1.06L19.188 12l-3.406-3.407a.75.75 0 010-1.06z" fill="#081D26"/><path fill-rule="evenodd" clip-rule="evenodd" d="M9 12a.75.75 0 01.75-.75h10.497a.75.75 0 110 1.5H9.75A.75.75 0 019 12z" fill="#081D26"/><path fill-rule="evenodd" clip-rule="evenodd" d="M3.44 3.44A1.5 1.5 0 014.5 3h5.25a.75.75 0 010 1.5H4.5v15h5.25a.75.75 0 010 1.5H4.5A1.5 1.5 0 013 19.5v-15c0-.398.158-.78.44-1.06z" fill="#081D26"/></svg>