<svg width="24" height="24" fill="none" xmlns="http://www.w3.org/2000/svg"><path d="M21.53 16.694a2.106 2.106 0 00-.748-.887l-2.992-2.124a4.223 4.223 0 00-.767-.425c-.652-.266-1.32-.206-1.82.102-.447.206-1.026.836-1.412 1.213-1.42-.892-3.417-2.887-4.378-4.38.355-.378.974-.96 1.189-1.377.198-.325.298-.671.298-1.029 0-.271-.062-.556-.182-.835a3.798 3.798 0 00-.441-.778L8.194 3.238a2.199 2.199 0 00-.897-.753 2.457 2.457 0 00-1.052-.235c-2.34.026-4.05 2.614-3.982 4.836.006 2.297 1.15 4.47 2.556 6.453a25.742 25.742 0 005.628 5.628c2.48 1.758 5.591 3.346 8.51 2.185 1.404-.58 2.769-2.038 2.779-3.655 0-.328-.064-.649-.207-1.003zm-1.447 1.664c-.333.717-1.008 1.328-1.698 1.608-2.197.929-5.075-.576-7.054-2.01a24.18 24.18 0 01-5.296-5.296c-1.217-1.729-2.256-3.594-2.272-5.574C3.77 6.03 4.11 5.12 4.9 4.381c.43-.425.87-.631 1.346-.631.143 0 .284.03.414.093a.73.73 0 01.306.257c.215.336 2.283 3.129 2.37 3.435a.65.65 0 01.065.254.518.518 0 01-.092.269c-.156.299-.793.89-1.041 1.167-.428.392-.51 1.034-.197 1.658.19.348.5.779.928 1.284a25.927 25.927 0 002.818 2.828c.488.412.923.72 1.267.902.501.294 1.245.32 1.661-.158.263-.247.915-.959 1.196-1.073.268-.162.337-.09.514-.018.278.063 3.16 2.194 3.466 2.389.155.107.208.2.226.239a1.1 1.1 0 01.09.422c0 .223-.05.444-.152.66z" fill="#081D26"/></svg>