<svg width="32" height="32" viewBox="0 0 32 32" fill="none" xmlns="http://www.w3.org/2000/svg">
<path d="M7.6 12.781V20.019C7.6 20.981 6.844 21.75 5.881 21.75C4.925 21.75 4 20.975 4 20.019V12.781C4 11.837 4.925 11.062 5.881 11.062C6.825 11.062 7.6 11.837 7.6 12.781V12.781ZM8.275 22.594C8.275 23.619 9.1 24.444 10.125 24.444H11.369L11.388 28.263C11.388 30.569 14.838 30.551 14.838 28.263V24.444H17.163V28.263C17.163 30.557 20.632 30.563 20.632 28.263V24.444H21.894C22.1361 24.4432 22.3757 24.3947 22.5991 24.3013C22.8224 24.2079 23.0252 24.0714 23.1958 23.8996C23.3664 23.7278 23.5015 23.5241 23.5933 23.3C23.6851 23.076 23.7319 22.8361 23.731 22.594V11.382H8.275V22.594ZM23.775 10.775H8.206C8.206 8.09999 9.806 5.77499 12.181 4.56299L10.987 2.35699C10.812 2.05099 11.256 1.85699 11.406 2.11899L12.618 4.34399C14.799 3.37499 17.306 3.42499 19.387 4.34399L20.593 2.12499C20.749 1.85599 21.187 2.05599 21.012 2.36299L19.818 4.56299C22.174 5.77499 23.774 8.10099 23.774 10.775H23.775ZM13.106 7.30599C13.106 7.13201 13.0369 6.96515 12.9139 6.84213C12.7908 6.7191 12.624 6.64999 12.45 6.64999C12.094 6.64999 11.813 6.94999 11.813 7.30599C11.813 7.66199 12.101 7.96199 12.45 7.96199C12.819 7.96199 13.106 7.66199 13.106 7.30599ZM20.194 7.30599C20.1948 7.13485 20.1284 6.97023 20.0091 6.84754C19.8898 6.72486 19.7271 6.65392 19.556 6.64999C19.382 6.64999 19.2152 6.7191 19.0921 6.84213C18.9691 6.96515 18.9 7.13201 18.9 7.30599C18.9 7.47997 18.9691 7.64683 19.0921 7.76985C19.2152 7.89287 19.382 7.96199 19.556 7.96199C19.906 7.96199 20.194 7.66199 20.194 7.30599V7.30599ZM26.119 11.063C25.175 11.063 24.4 11.819 24.4 12.782V20.02C24.4 20.982 25.175 21.751 26.119 21.751C27.082 21.751 28 20.976 28 20.02V12.782C28 11.82 27.075 11.063 26.119 11.063Z" fill="white"/>
</svg>
