<svg width="32" height="32" viewBox="0 0 32 32" fill="none" xmlns="http://www.w3.org/2000/svg">
<path d="M24.9465 26.0013C23.8398 27.6546 22.6665 29.268 20.8798 29.2946C19.0931 29.3346 18.5198 28.2413 16.4931 28.2413C14.4531 28.2413 13.8265 29.268 12.1331 29.3346C10.3865 29.4013 9.06646 27.5746 7.94646 25.9613C5.66646 22.668 3.9198 16.6013 6.26646 12.5213C7.42646 10.4946 9.50646 9.21464 11.7598 9.17464C13.4665 9.14797 15.0931 10.3346 16.1465 10.3346C17.1865 10.3346 19.1598 8.90797 21.2265 9.1213C22.0931 9.1613 24.5198 9.46797 26.0798 11.7613C25.9598 11.8413 23.1865 13.468 23.2131 16.8413C23.2531 20.868 26.7465 22.2146 26.7865 22.228C26.7465 22.3213 26.2265 24.148 24.9465 26.0013ZM17.3331 4.66797C18.3065 3.5613 19.9198 2.7213 21.2531 2.66797C21.4265 4.22797 20.7998 5.8013 19.8665 6.9213C18.9465 8.05464 17.4265 8.93464 15.9331 8.81464C15.7331 7.2813 16.4798 5.6813 17.3331 4.66797V4.66797Z" fill="white"/>
</svg>
