<svg width="24" height="24" viewBox="0 0 24 24" fill="none" xmlns="http://www.w3.org/2000/svg">
<path d="M21.5295 16.6935C21.375 16.3417 21.1215 16.0418 20.7818 15.807L17.79 13.683C17.5133 13.4955 17.262 13.356 17.0228 13.2585C16.371 12.9922 15.7028 13.0522 15.2033 13.3597C14.7563 13.566 14.1765 14.196 13.791 14.5732C12.3705 13.6807 10.374 11.6857 9.41325 10.1932C9.768 9.81525 10.3875 9.23325 10.602 8.81625C10.8 8.49075 10.9005 8.145 10.9005 7.78725C10.9005 7.51575 10.8383 7.2315 10.7183 6.9525C10.6118 6.69375 10.467 6.438 10.2765 6.174L8.19375 3.2385C7.96425 2.907 7.65975 2.65125 7.2975 2.48475C6.97575 2.331 6.61125 2.25 6.2445 2.25C3.9045 2.2755 2.19525 4.8645 2.2635 7.086C2.2695 9.38325 3.41325 11.5568 4.81875 13.539C6.345 15.6503 8.32725 17.6295 10.4468 19.167C12.9263 20.925 16.038 22.5135 18.957 21.3517C20.361 20.7712 21.726 19.314 21.7358 17.697C21.7365 17.3693 21.672 17.0482 21.5295 16.6935V16.6935ZM20.0835 18.3577C19.7498 19.0747 19.0748 19.686 18.3848 19.9665C16.188 20.895 13.3103 19.3897 11.331 17.9557C9.33375 16.5075 7.47075 14.6475 6.0345 12.66C4.818 10.9312 3.77925 9.066 3.7635 7.086C3.77025 6.03 4.11 5.12025 4.899 4.38075C5.3295 3.95625 5.76975 3.75 6.2445 3.75C6.3885 3.75 6.52875 3.78075 6.65925 3.843C6.78675 3.90225 6.88275 3.98175 6.96525 4.10025C7.17975 4.43625 9.2475 7.2285 9.33525 7.5345C9.3945 7.6725 9.4005 7.758 9.4005 7.78875C9.4005 7.86675 9.3735 7.95075 9.30825 8.058C9.15225 8.3565 8.5155 8.94825 8.2665 9.225C7.839 9.6165 7.75725 10.2585 8.07 10.8832C8.25975 11.2312 8.57025 11.6617 8.99775 12.1672C9.8535 13.173 10.92 14.2388 11.8163 14.9948C12.3038 15.4073 12.7395 15.7155 13.083 15.897C13.584 16.191 14.328 16.2173 14.7443 15.7388C15.0068 15.492 15.6593 14.7803 15.9398 14.6663C16.2075 14.5035 16.2773 14.5755 16.4543 14.6483C16.7318 14.7113 19.6148 16.842 19.92 17.037C20.0753 17.1442 20.1285 17.2373 20.1458 17.2755C20.208 17.4308 20.2358 17.5612 20.2358 17.6985C20.2365 17.9205 20.1855 18.1425 20.0835 18.3577V18.3577Z" fill="#081D26"/>
</svg>
