<svg width="24" height="24" viewBox="0 0 24 24" fill="none" xmlns="http://www.w3.org/2000/svg">
<path fill-rule="evenodd" clip-rule="evenodd" d="M12 3.75C7.44365 3.75 3.75 7.44365 3.75 12C3.75 16.5563 7.44365 20.25 12 20.25C16.5563 20.25 20.25 16.5563 20.25 12C20.25 7.44365 16.5563 3.75 12 3.75ZM2.25 12C2.25 6.61522 6.61522 2.25 12 2.25C17.3848 2.25 21.75 6.61522 21.75 12C21.75 17.3848 17.3848 21.75 12 21.75C6.61522 21.75 2.25 17.3848 2.25 12Z" fill="#081D26"/>
<path fill-rule="evenodd" clip-rule="evenodd" d="M12 8.25C10.3431 8.25 9 9.59315 9 11.25C9 12.9069 10.3431 14.25 12 14.25C13.6569 14.25 15 12.9069 15 11.25C15 9.59315 13.6569 8.25 12 8.25ZM7.5 11.25C7.5 8.76472 9.51472 6.75 12 6.75C14.4853 6.75 16.5 8.76472 16.5 11.25C16.5 13.7353 14.4853 15.75 12 15.75C9.51472 15.75 7.5 13.7353 7.5 11.25Z" fill="#081D26"/>
<path fill-rule="evenodd" clip-rule="evenodd" d="M11.9999 15.75C10.8922 15.75 9.80605 16.0565 8.86175 16.6357C7.91744 17.2148 7.15182 18.044 6.64962 19.0313C6.46183 19.4005 6.01031 19.5476 5.6411 19.3598C5.2719 19.172 5.12483 18.7205 5.31262 18.3513C5.94031 17.1172 6.89727 16.0809 8.07754 15.357C9.25782 14.6331 10.6154 14.25 11.9999 14.25C13.3845 14.25 14.7421 14.6331 15.9223 15.357C17.1026 16.0808 18.0596 17.1172 18.6873 18.3513C18.8751 18.7205 18.728 19.172 18.3588 19.3598C17.9896 19.5476 17.5381 19.4005 17.3503 19.0313C16.8481 18.0439 16.0824 17.2148 15.1381 16.6357C14.1938 16.0565 13.1077 15.75 11.9999 15.75Z" fill="#081D26"/>
</svg>
