<svg width="417" height="417" viewBox="0 0 417 417" fill="none" xmlns="http://www.w3.org/2000/svg">
<path d="M82.5299 135.332C95.0738 97.4806 120.981 63.8196 158.189 42.2302C174.316 32.8986 191.356 26.5152 208.628 22.9193C274.085 9.38465 343.405 35.8127 382.437 93.2188C382.99 94.0282 383.478 94.8054 383.998 95.6149C385.818 98.4319 387.573 101.281 389.264 104.164C390.337 106.009 391.378 107.855 392.353 109.734C408.029 138.881 416.937 172.222 416.999 207.653C417.193 319.23 329.569 410.408 219.298 415.787C289.602 411.58 348.29 364.409 369.443 300.155C375.022 283.419 377.973 265.52 377.941 246.913C377.865 203.831 361.686 164.603 335.15 134.827C305.723 101.846 263.545 80.4921 216.408 78.5322C215.338 78.4692 214.236 78.4387 213.166 78.4082C213.069 78.376 212.939 78.3762 212.874 78.4087C211.512 78.3462 210.151 78.3486 208.789 78.351C207.428 78.3534 206.066 78.3557 204.705 78.423C204.64 78.3907 204.511 78.3909 204.413 78.4235C203.344 78.4577 202.242 78.4921 201.172 78.5588C133.072 82.6649 79.1976 139.131 79.3181 208.21C79.3553 229.475 84.5121 249.532 93.6195 267.215C71.3409 225.145 68.6323 177.595 82.5624 135.332L82.5299 135.332Z" fill="url(#paint0_linear_1124_1365)"/>
<path d="M23.1368 114.462C23.4276 113.943 23.6861 113.424 23.9769 112.905C26.8521 107.227 30.0517 101.71 33.446 96.3558C33.8339 95.7068 34.2865 95.0577 34.7392 94.4086C71.7893 37.6476 135.779 0.127452 208.618 0.000323231C281.198 -0.126353 345.155 36.9112 382.435 93.2182C343.403 35.8445 274.083 9.38406 208.626 22.9187C191.322 26.4823 174.314 32.8656 158.187 42.2296C120.946 63.8191 95.0715 97.48 82.5276 135.332C68.5975 177.595 71.3063 225.145 93.5849 267.215C93.7802 267.636 93.9752 268.057 94.2352 268.446C94.9834 269.903 95.7964 271.328 96.5768 272.753C96.6419 272.85 96.6744 272.947 96.7718 273.044C97.4547 274.242 98.1698 275.441 98.8849 276.574C121.835 313.326 162.69 337.762 209.24 337.681C255.757 337.599 296.494 313.022 319.348 276.189C294.071 317.726 253.597 344.605 209.235 353.792C170.188 361.899 128.134 356.332 90.8504 334.873C74.6908 325.597 60.6341 313.984 48.9088 300.779C4.31368 250.709 -7.38726 177.111 23.2017 114.494L23.1368 114.462Z" fill="url(#paint1_linear_1124_1365)"/>
<path d="M23.1394 114.463C-7.44959 177.08 4.25154 250.678 48.8466 300.748C60.572 313.953 74.6285 325.534 90.788 334.842C128.104 356.301 170.126 361.9 209.173 353.761C253.535 344.574 294.009 317.695 319.286 276.158C319.965 274.99 320.676 273.822 321.387 272.621C321.451 272.524 321.484 272.426 321.581 272.329C322.389 270.934 323.164 269.474 323.907 268.013C324.166 267.624 324.36 267.202 324.554 266.781C333.599 249.065 338.686 228.991 338.649 207.726C338.528 138.647 284.457 82.3365 216.376 78.5005C263.545 80.4604 305.723 101.814 335.118 134.795C361.686 164.572 377.833 203.8 377.908 246.881C377.941 265.488 374.99 283.387 369.411 300.124C348.258 364.345 289.537 411.548 219.266 415.755C215.992 415.891 212.653 415.994 209.347 416C206.04 416.005 202.701 415.946 199.427 415.79C89.1376 410.796 1.19555 319.924 1.00081 208.347C0.941913 174.602 8.92547 142.69 23.1394 114.463Z" fill="url(#paint2_linear_1124_1365)"/>
<defs>
<linearGradient id="paint0_linear_1124_1365" x1="383.925" y1="361.489" x2="84.7173" y2="-14.1737" gradientUnits="userSpaceOnUse">
<stop stop-color="#C0DED4"/>
<stop offset="0.6" stop-color="#49A3BB"/>
<stop offset="0.99" stop-color="#13455A"/>
</linearGradient>
<linearGradient id="paint1_linear_1124_1365" x1="148.87" y1="50.3003" x2="244.531" y2="273.92" gradientUnits="userSpaceOnUse">
<stop stop-color="#C0DED4"/>
<stop offset="0.6" stop-color="#49A3BB"/>
<stop offset="0.99" stop-color="#13455A"/>
</linearGradient>
<linearGradient id="paint2_linear_1124_1365" x1="377.941" y1="246.978" x2="1.06938" y2="247.636" gradientUnits="userSpaceOnUse">
<stop stop-color="#C0DED4"/>
<stop offset="0.6" stop-color="#49A3BB"/>
<stop offset="0.99" stop-color="#13455A"/>
</linearGradient>
</defs>
</svg>
