<svg width="52" height="16" viewBox="0 0 52 16" fill="none" xmlns="http://www.w3.org/2000/svg">
<path d="M0.989348 0H8.08603C10.3108 0 12.3264 0.905129 13.7974 2.34858C15.2563 3.80441 16.1715 5.79824 16.1715 8.00014C16.1715 10.2018 15.2563 12.1956 13.7974 13.6511C12.3264 15.0946 10.3108 16 8.08603 16H0.989348C0.371114 16 0 15.6329 0 15.0214V0.978612C0 0.367117 0.371114 0 0.989348 0Z" fill="white"/>
<path d="M36.6448 16C36.0254 16 35.6554 15.6329 35.6554 15.0214V0.978612C35.6554 0.367117 36.0254 0 36.6448 0H45.8788C48.3894 0 50.4289 2.01834 50.4289 4.50148C50.4289 5.32103 50.2066 6.10399 49.8112 6.76448C51.1334 7.682 52 9.19894 52 10.9236C52 13.7246 49.7006 16 46.8681 16H36.6448Z" fill="white"/>
<path d="M32.9358 14.7646L25.5421 0.391617C25.27 -0.122189 24.4295 -0.122189 24.1574 0.40373L16.7394 14.8136C16.4916 15.3026 16.8263 15.9876 17.4318 15.9876L32.281 16C32.923 16 33.22 15.3026 32.9358 14.7646Z" fill="white"/>
</svg>
