<svg width="260" height="48" viewBox="0 0 260 48" fill="none" xmlns="http://www.w3.org/2000/svg">
<g clip-path="url(#clip0_1102_24886)">
<path d="M250.644 32.2419C249.199 36.5842 246.224 40.4428 241.956 42.9135C240.107 43.9814 238.153 44.7107 236.173 45.12C228.67 46.6605 220.733 43.613 216.272 37.0158C216.209 36.9228 216.153 36.8335 216.094 36.7405C215.886 36.4168 215.685 36.0893 215.492 35.7582C215.37 35.5461 215.251 35.334 215.139 35.1181C213.349 31.7693 212.335 27.9405 212.335 23.8735C212.335 11.0661 222.393 0.617688 235.029 0.0223389C226.973 0.491176 220.239 5.89397 217.802 13.2651C217.16 15.1851 216.818 17.2391 216.818 19.3749C216.818 24.32 218.664 28.8261 221.699 32.2493C225.064 36.0409 229.892 38.5005 235.293 38.7349C235.416 38.7423 235.542 38.7461 235.664 38.7498C235.676 38.7535 235.69 38.7535 235.698 38.7498C235.854 38.7572 236.01 38.7572 236.166 38.7572C236.322 38.7572 236.478 38.7572 236.634 38.7498C236.641 38.7535 236.656 38.7535 236.667 38.7498C236.79 38.7461 236.916 38.7423 237.039 38.7349C244.842 38.2772 251.027 31.8065 251.027 23.8772C251.027 21.4363 250.44 19.133 249.4 17.1014C251.944 21.9349 252.245 27.3935 250.64 32.2419H250.644Z" fill="url(#paint0_linear_1102_24886)"/>
<path d="M257.445 34.6494C257.412 34.7089 257.382 34.7684 257.349 34.828C257.018 35.4791 256.65 36.1117 256.26 36.7256C256.216 36.8 256.164 36.8745 256.112 36.9489C251.855 43.4568 244.516 47.7507 236.17 47.7507C227.854 47.7507 220.533 43.4866 216.272 37.0159C220.733 43.6094 228.671 46.6605 236.174 45.1201C238.157 44.7145 240.107 43.9852 241.957 42.9135C246.228 40.4428 249.2 36.5842 250.644 32.2419C252.249 27.3935 251.948 21.9349 249.404 17.1014C249.382 17.0531 249.359 17.0047 249.33 16.9601C249.244 16.7926 249.151 16.6289 249.062 16.4652C249.055 16.454 249.051 16.4428 249.04 16.4317C248.962 16.294 248.88 16.1563 248.798 16.0261C246.176 11.8028 241.5 8.98982 236.166 8.98982C230.836 8.98982 226.164 11.8028 223.538 16.0261C226.442 11.2633 231.085 8.1861 236.17 7.14052C240.646 6.21773 245.463 6.86517 249.731 9.33587C251.58 10.4038 253.189 11.7396 254.53 13.2577C259.629 19.014 260.955 27.4642 257.438 34.6456L257.445 34.6494Z" fill="url(#paint1_linear_1102_24886)"/>
<path d="M257.445 34.6493C260.963 27.4679 259.637 19.0177 254.537 13.2614C253.196 11.7433 251.588 10.4112 249.738 9.33953C245.467 6.86884 240.653 6.21767 236.177 7.14419C231.093 8.18977 226.45 11.267 223.545 16.0298C223.467 16.1637 223.385 16.2977 223.304 16.4353C223.296 16.4465 223.293 16.4577 223.281 16.4688C223.189 16.6288 223.099 16.7963 223.014 16.9637C222.984 17.0084 222.962 17.0567 222.94 17.1051C221.9 19.1367 221.313 21.44 221.313 23.8809C221.313 31.8102 227.497 38.2847 235.297 38.7386C229.893 38.5042 225.064 36.0447 221.703 32.253C218.665 28.8298 216.822 24.3237 216.822 19.3786C216.822 17.2428 217.164 15.1888 217.807 13.2688C220.243 5.9014 226.981 0.494884 235.033 0.0260465C235.409 0.0111628 235.791 0 236.17 0C236.549 0 236.931 0.00744186 237.307 0.0260465C249.943 0.621395 260.001 11.0698 260.001 23.8772C260.001 27.7507 259.08 31.4121 257.445 34.6493V34.6493Z" fill="url(#paint2_linear_1102_24886)"/>
<path d="M69.29 45.5591C66.6714 45.5591 64.5469 43.4307 64.5469 40.8074V7.07349C64.5469 4.45023 66.6714 2.32186 69.29 2.32186C71.9086 2.32186 74.0331 4.45023 74.0331 7.07349V40.8074C74.0331 43.4307 71.9086 45.5591 69.29 45.5591ZM138.483 39.7916C137.027 33.1609 133.127 27.5795 127.872 23.8995C133.135 20.2121 137.005 14.6419 138.469 8.11907C139.044 5.55907 137.436 3.01767 134.881 2.44093C132.325 1.86791 129.788 3.47535 129.213 6.03535C127.508 13.6298 120.621 19.1442 112.836 19.1442H100.393V7.07349C100.393 4.45023 98.2689 2.32186 95.6503 2.32186C93.0317 2.32186 90.9071 4.45023 90.9071 7.07349V40.8074C90.9071 43.4307 93.0317 45.5591 95.6503 45.5591C98.2689 45.5591 100.393 43.4307 100.393 40.8074V28.64H112.821C120.696 28.64 127.534 34.1433 129.216 41.827C129.777 44.387 132.303 46.0093 134.866 45.4474C137.425 44.8856 139.041 42.3516 138.48 39.7879L138.483 39.7916ZM200.449 39.773C198.993 33.1423 195.093 27.5609 189.837 23.8809C195.1 20.1935 198.971 14.6233 200.434 8.10046C201.01 5.54046 199.401 2.99907 196.846 2.42232C194.291 1.8493 191.754 3.45674 191.178 6.01674C189.473 13.6112 182.587 19.1256 174.802 19.1256H162.359V7.0586C162.359 4.43535 160.234 2.30698 157.616 2.30698C154.997 2.30698 152.873 4.43535 152.873 7.0586V40.7926C152.873 43.4158 154.997 45.5442 157.616 45.5442C160.234 45.5442 162.359 43.4158 162.359 40.7926V28.6251H174.787C182.661 28.6251 189.499 34.1284 191.182 41.8121C191.743 44.3721 194.268 45.9944 196.831 45.4326C199.39 44.8707 201.006 42.3367 200.445 39.773H200.449ZM42.9186 2.25488C40.3 2.25488 38.1754 4.38325 38.1754 7.00651V30.2177L7.94857 3.50884C7.10171 2.73116 5.98 2.25488 4.74314 2.25488C2.12457 2.25488 0 4.38325 0 7.00651V40.7405C0 43.3637 2.12457 45.4921 4.74314 45.4921C7.36171 45.4921 9.48629 43.3637 9.48629 40.7405V17.5293L39.7317 44.253C40.5749 45.0233 41.6891 45.4884 42.9186 45.4884C45.5334 45.4884 47.6617 43.36 47.6617 40.7367V7.00651C47.6617 4.38325 45.5334 2.25488 42.9186 2.25488V2.25488Z" fill="url(#paint3_linear_1102_24886)"/>
</g>
<defs>
<linearGradient id="paint0_linear_1102_24886" x1="216.155" y1="6.22198" x2="250.439" y2="49.3429" gradientUnits="userSpaceOnUse">
<stop stop-color="#C0DED4"/>
<stop offset="0.6" stop-color="#49A3BB"/>
<stop offset="0.99" stop-color="#13455A"/>
</linearGradient>
<linearGradient id="paint1_linear_1102_24886" x1="243.026" y1="41.989" x2="232.077" y2="16.3156" gradientUnits="userSpaceOnUse">
<stop stop-color="#C0DED4"/>
<stop offset="0.6" stop-color="#49A3BB"/>
<stop offset="0.99" stop-color="#13455A"/>
</linearGradient>
<linearGradient id="paint2_linear_1102_24886" x1="216.819" y1="19.3674" x2="260.001" y2="19.3674" gradientUnits="userSpaceOnUse">
<stop stop-color="#C0DED4"/>
<stop offset="0.6" stop-color="#49A3BB"/>
<stop offset="0.99" stop-color="#13455A"/>
</linearGradient>
<linearGradient id="paint3_linear_1102_24886" x1="-0.616572" y1="11.9293" x2="302.774" y2="47.7915" gradientUnits="userSpaceOnUse">
<stop offset="0.05" stop-color="#13455A"/>
<stop offset="0.18" stop-color="#1D566C"/>
<stop offset="0.43" stop-color="#37849B"/>
<stop offset="0.58" stop-color="#49A3BB"/>
<stop offset="0.93" stop-color="#C0DED4"/>
</linearGradient>
<clipPath id="clip0_1102_24886">
<rect width="260" height="48" fill="white"/>
</clipPath>
</defs>
</svg>
