<svg width="80" height="80" viewBox="0 0 80 80" fill="none" xmlns="http://www.w3.org/2000/svg">
<path d="M64.2967 54.0169C61.8717 61.2919 56.8783 67.7565 49.7156 71.8958C46.6111 73.685 43.332 74.9068 40.0093 75.5926C27.4168 78.1734 14.0949 73.0678 6.60799 62.0151C6.50201 61.8592 6.40847 61.7096 6.30873 61.5537C5.95963 61.0114 5.623 60.4628 5.29884 59.908C5.09312 59.5527 4.89363 59.1973 4.70661 58.8358C1.70185 53.2252 0 46.8105 0 39.9968C0 18.5397 16.8815 1.03478 38.0893 0.0373535C24.5679 0.822828 13.2658 9.87449 9.17636 22.2239C8.09789 25.4406 7.52435 28.8817 7.52435 32.46C7.52435 40.7449 10.6226 48.2942 15.7157 54.0294C21.3637 60.3818 29.4678 64.5024 38.5319 64.8951C38.7376 64.9076 38.9496 64.9138 39.1553 64.9201C39.174 64.9263 39.1989 64.9263 39.2114 64.9201C39.4732 64.9325 39.7351 64.9325 39.9969 64.9325C40.2587 64.9325 40.5206 64.9325 40.7824 64.9201C40.7948 64.9263 40.8198 64.9263 40.8385 64.9201C41.0442 64.9138 41.2561 64.9076 41.4619 64.8951C54.5593 64.1284 64.9388 53.2876 64.9388 40.0031C64.9388 35.9136 63.9539 32.0548 62.2084 28.6511C66.4786 36.7489 66.9836 45.8941 64.2905 54.0169H64.2967Z" fill="url(#paint0_linear_1124_3937)"/>
<path d="M75.711 58.0502C75.6549 58.1499 75.605 58.2497 75.5489 58.3494C74.9941 59.4404 74.3769 60.5001 73.7224 61.5287C73.6476 61.6534 73.5603 61.7781 73.473 61.9028C66.3289 72.8059 54.0107 79.9999 40.0031 79.9999C26.0453 79.9999 13.7582 72.8558 6.60791 62.015C14.0949 73.0615 27.4167 78.1733 40.0093 75.5925C43.3382 74.913 46.611 73.6911 49.7155 71.8958C56.8845 67.7564 61.8717 61.2918 64.2967 54.0169C66.9897 45.894 66.4848 36.7489 62.2145 28.651C62.1771 28.57 62.1397 28.4889 62.0899 28.4141C61.9465 28.1336 61.7906 27.8593 61.641 27.585C61.6285 27.5663 61.6223 27.5476 61.6036 27.5289C61.4727 27.2982 61.3356 27.0676 61.1984 26.8494C56.7973 19.7739 48.9487 15.061 39.9968 15.061C31.0511 15.061 23.2089 19.7739 18.8015 26.8494C23.6764 18.87 31.4688 13.7145 40.0031 11.9628C47.5149 10.4168 55.6003 11.5015 62.7631 15.6408C65.8676 17.4299 68.5669 19.6679 70.8174 22.2114C79.3765 31.8552 81.602 46.0125 75.6985 58.044L75.711 58.0502Z" fill="url(#paint1_linear_1124_3937)"/>
<path d="M75.7112 58.0503C81.6148 46.0189 79.3892 31.8616 70.83 22.2177C68.5796 19.6743 65.8803 17.4425 62.7758 15.6472C55.6068 11.5078 47.5276 10.4169 40.0158 11.9691C31.4815 13.7209 23.6891 18.8763 18.8142 26.8558C18.6832 27.0802 18.5461 27.3046 18.409 27.5353C18.3965 27.554 18.3903 27.5727 18.3716 27.5914C18.2157 27.8594 18.0661 28.1399 17.9227 28.4205C17.8728 28.4953 17.8354 28.5763 17.798 28.6574C16.0525 32.0611 15.0676 35.9199 15.0676 40.0093C15.0676 53.2938 25.4471 64.1409 38.5383 64.9014C29.4679 64.5087 21.3639 60.3881 15.7222 54.0357C10.6228 48.3005 7.53076 40.7512 7.53076 32.4663C7.53076 28.888 8.1043 25.4469 9.18277 22.2302C13.2722 9.88701 24.5806 0.829112 38.0957 0.0436375C38.7254 0.0187018 39.3674 0 40.0033 0C40.6392 0 41.2813 0.0124679 41.9109 0.0436375C63.1187 1.04107 80.0002 18.5459 80.0002 40.0031C80.0002 46.4926 78.4542 52.6268 75.7112 58.0503Z" fill="url(#paint2_linear_1124_3937)"/>
<defs>
<linearGradient id="paint0_linear_1124_3937" x1="6.4119" y1="10.424" x2="63.8259" y2="82.7674" gradientUnits="userSpaceOnUse">
<stop stop-color="#C0DED4"/>
<stop offset="0.6" stop-color="#49A3BB"/>
<stop offset="0.99" stop-color="#13455A"/>
</linearGradient>
<linearGradient id="paint1_linear_1124_3937" x1="51.5099" y1="70.3468" x2="33.1887" y2="27.3108" gradientUnits="userSpaceOnUse">
<stop stop-color="#C0DED4"/>
<stop offset="0.6" stop-color="#49A3BB"/>
<stop offset="0.99" stop-color="#13455A"/>
</linearGradient>
<linearGradient id="paint2_linear_1124_3937" x1="7.52453" y1="32.4476" x2="80.0002" y2="32.4476" gradientUnits="userSpaceOnUse">
<stop stop-color="#C0DED4"/>
<stop offset="0.6" stop-color="#49A3BB"/>
<stop offset="0.99" stop-color="#13455A"/>
</linearGradient>
</defs>
</svg>
